<svg xmlns="http://www.w3.org/2000/svg" viewBox="0 0 263.22 48.39"><defs><style>.cls-1{fill:#39b54a;}.cls-2{fill:#006837;opacity:0.19;}.cls-3{fill:#fff;}.cls-4{font-size:42.37px;font-family:Raleway-Light, Raleway;font-weight:300;}.cls-5{letter-spacing:-0.01em;}</style></defs><g id="Layer_2" data-name="Layer 2"><g id="Layer_1-2" data-name="Layer 1"><rect class="cls-1" width="142.55" height="47.77" rx="22.14"/><polygon class="cls-2" points="0.01 22.14 0.01 25.63 1.32 33.17 60.2 33.17 60.2 47.77 82.36 47.77 82.36 33.17 141.22 33.17 142.54 25.63 142.54 22.14 141.22 14.59 82.36 14.59 82.36 0 60.2 0 60.2 14.59 1.32 14.59 0.01 22.14"/><path class="cls-3" d="M60.65,13.43a14.61,14.61,0,0,0-11-4.79,15.1,15.1,0,0,0-11,4.6,16.1,16.1,0,0,0-3.2,4.85,14.64,14.64,0,0,0-1.14,5.72,15.26,15.26,0,0,0,1.08,5.66,15.84,15.84,0,0,0,3.09,4.92,15.13,15.13,0,0,0,4.81,3.47,14.71,14.71,0,0,0,6.23,1.29,14.92,14.92,0,0,0,6.19-1.25,15.25,15.25,0,0,0,4.85-3.39,15.45,15.45,0,0,0,3.18-4.85A14.68,14.68,0,0,0,64.8,24a15.12,15.12,0,0,0-1.08-5.61A16.18,16.18,0,0,0,60.65,13.43ZM56,26.72a8.53,8.53,0,0,1-1.23,2.58,5.87,5.87,0,0,1-2.14,1.84,6.58,6.58,0,0,1-3.09.68,6.73,6.73,0,0,1-3.08-.66,6.15,6.15,0,0,1-2.14-1.77,8.24,8.24,0,0,1-1.27-2.55,10.29,10.29,0,0,1-.42-2.94A10.47,10.47,0,0,1,43,21a7.78,7.78,0,0,1,1.25-2.55,6.34,6.34,0,0,1,2.14-1.8A6.56,6.56,0,0,1,49.5,16a7,7,0,0,1,3,.64,5.85,5.85,0,0,1,2.17,1.76A8.3,8.3,0,0,1,56,20.89a10.11,10.11,0,0,1,.42,2.92A10.59,10.59,0,0,1,56,26.72ZM25.22,30.3a6.29,6.29,0,0,1-2.16,1.16,8,8,0,0,1-2.33.36,6.53,6.53,0,0,1-2.9-.63,6.33,6.33,0,0,1-2.18-1.76,7.91,7.91,0,0,1-1.36-2.57,9.7,9.7,0,0,1-.46-3,10,10,0,0,1,.4-2.8,8.2,8.2,0,0,1,1.23-2.54,6.13,6.13,0,0,1,2.12-1.85,6.41,6.41,0,0,1,3.07-.7,9.34,9.34,0,0,1,2.35.32,6.42,6.42,0,0,1,2.25,1.12,5,5,0,0,1,1.58,2.29l6.32-4.49a11.74,11.74,0,0,0-4.79-4.76,15.11,15.11,0,0,0-7.54-1.81,15.53,15.53,0,0,0-6.46,1.3A14.79,14.79,0,0,0,9.5,13.39a15.51,15.51,0,0,0-3,4.81,14.71,14.71,0,0,0-1,5.4,15.12,15.12,0,0,0,1.1,5.66,16.33,16.33,0,0,0,3.11,5,15.41,15.41,0,0,0,4.79,3.56,13.93,13.93,0,0,0,6.12,1.33,17.26,17.26,0,0,0,5.21-.82,15.3,15.3,0,0,0,4.71-2.4,8.8,8.8,0,0,0,3-3.77l-6.73-4A5.07,5.07,0,0,1,25.22,30.3Zm108.84-14A13.08,13.08,0,0,0,129,10.87a16.06,16.06,0,0,0-8.37-2H109V38.94H120.6a16.43,16.43,0,0,0,8-1.86,13.28,13.28,0,0,0,5.3-5.26,16.18,16.18,0,0,0,1.88-8A16.68,16.68,0,0,0,134.06,16.29ZM126.58,27.9a6.59,6.59,0,0,1-2.31,2.82,6.39,6.39,0,0,1-3.67,1h-3.3V16.06h3.3a6.63,6.63,0,0,1,3.65,1,6.21,6.21,0,0,1,2.33,2.74,9.82,9.82,0,0,1,.8,4.09A9.91,9.91,0,0,1,126.58,27.9Zm-31,11h8.26V18.23H95.61ZM78.83,29.41,72.94,8.86H64.21L74.72,38.94h8.22L93.32,8.86H84.63Z"/><text class="cls-4" transform="translate(152.38 38.94)"><tspan class="cls-5">C</tspan><tspan x="28.81" y="0">ARE</tspan></text><path class="cls-3" d="M103.87,10.81a2.16,2.16,0,0,0-4.13-.89,2.16,2.16,0,0,0-4.13.89,2.08,2.08,0,0,0,.12.71,2.32,2.32,0,0,0,.4.7l.24.24,3.3,3.27a.09.09,0,0,0,.07,0,.13.13,0,0,0,.08,0l3.42-3.4h0a2.17,2.17,0,0,0,.5-.79A2.24,2.24,0,0,0,103.87,10.81Z"/></g></g></svg>